<?xml version="1.0" encoding="UTF-8" standalone="no"?>
<!-- Created with Inkscape (http://www.inkscape.org/) -->

<svg
        width="131.21046mm"
        height="65.660667mm"
        viewBox="0 0 131.21046 65.660669"
        version="1.1"
        id="svg1"
        xml:space="preserve"
        inkscape:version="1.3 (0e150ed6c4, 2023-07-21)"
        sodipodi:docname="Free-QR.svg"
        xmlns:inkscape="http://www.inkscape.org/namespaces/inkscape"
        xmlns:sodipodi="http://sodipodi.sourceforge.net/DTD/sodipodi-0.dtd"
        xmlns="http://www.w3.org/2000/svg"
        xmlns:svg="http://www.w3.org/2000/svg"><sodipodi:namedview
     id="namedview1"
     pagecolor="#ffffff"
     bordercolor="#000000"
     borderopacity="0.25"
     inkscape:showpageshadow="2"
     inkscape:pageopacity="0.0"
     inkscape:pagecheckerboard="0"
     inkscape:deskcolor="#d1d1d1"
     inkscape:document-units="mm"
     showgrid="false"
     inkscape:zoom="1.0242632"
     inkscape:cx="283.13035"
     inkscape:cy="260.18703"
     inkscape:window-width="1920"
     inkscape:window-height="1009"
     inkscape:window-x="-8"
     inkscape:window-y="-8"
     inkscape:window-maximized="1"
     inkscape:current-layer="layer1"><inkscape:page
       x="0"
       y="0"
       width="131.21046"
       height="65.660667"
       id="page2"
       margin="0 0mm 0mm 0"
       bleed="0" /></sodipodi:namedview><defs
        id="defs1" />
    <rect width="100%" height="100%" fill="white" />
    <g
            inkscape:label="Ebene 1"
            inkscape:groupmode="layer"
            id="layer1"><g
       id="g1"
       transform="matrix(0.26458468,0,0,0.26458333,65.617,0)"><rect
         style="fill:none;fill-opacity:1"
         x="0"
         y="0"
         width="248"
         height="248"
         id="rect1" /><g
            id="elements"><path
           style="fill:#000000"
           d="m 8,8 h 8 v 8 H 8 Z m 8,0 h 8 v 8 h -8 z m 8,0 h 8 v 8 h -8 z m 8,0 h 8 v 8 h -8 z m 8,0 h 8 v 8 h -8 z m 8,0 h 8 v 8 h -8 z m 8,0 h 8 v 8 h -8 z m 32,0 h 8 v 8 h -8 z m 16,0 h 8 v 8 h -8 z m 8,0 h 8 v 8 h -8 z m 8,0 h 8 v 8 h -8 z m 8,0 h 8 v 8 h -8 z m 24,0 h 8 v 8 h -8 z m 8,0 h 8 v 8 h -8 z m 8,0 h 8 v 8 h -8 z m 16,0 h 8 v 8 h -8 z m 8,0 h 8 v 8 h -8 z m 8,0 h 8 v 8 h -8 z m 8,0 h 8 v 8 h -8 z m 8,0 h 8 v 8 h -8 z m 8,0 h 8 v 8 h -8 z m 8,0 h 8 v 8 h -8 z M 8,16 h 8 v 8 H 8 Z m 48,0 h 8 v 8 h -8 z m 16,0 h 8 v 8 h -8 z m 16,0 h 8 v 8 h -8 z m 24,0 h 8 v 8 h -8 z m 8,0 h 8 v 8 h -8 z m 8,0 h 8 v 8 h -8 z m 8,0 h 8 v 8 h -8 z m 48,0 h 8 v 8 h -8 z m 48,0 h 8 v 8 h -8 z M 8,24 h 8 v 8 H 8 Z m 16,0 h 8 v 8 h -8 z m 8,0 h 8 v 8 h -8 z m 8,0 h 8 v 8 h -8 z m 16,0 h 8 v 8 h -8 z m 48,0 h 8 v 8 h -8 z m 8,0 h 8 v 8 h -8 z m 16,0 h 8 v 8 h -8 z m 32,0 h 8 v 8 h -8 z m 8,0 h 8 v 8 h -8 z m 16,0 h 8 v 8 h -8 z m 16,0 h 8 v 8 h -8 z m 8,0 h 8 v 8 h -8 z m 8,0 h 8 v 8 h -8 z m 16,0 h 8 v 8 h -8 z M 8,32 h 8 v 8 H 8 Z m 16,0 h 8 v 8 h -8 z m 8,0 h 8 v 8 h -8 z m 8,0 h 8 v 8 h -8 z m 16,0 h 8 v 8 h -8 z m 16,0 h 8 v 8 h -8 z m 8,0 h 8 v 8 h -8 z m 8,0 h 8 v 8 h -8 z m 16,0 h 8 v 8 h -8 z m 16,0 h 8 v 8 h -8 z m 8,0 h 8 v 8 h -8 z m 16,0 h 8 v 8 h -8 z m 8,0 h 8 v 8 h -8 z m 32,0 h 8 v 8 h -8 z m 16,0 h 8 v 8 h -8 z m 8,0 h 8 v 8 h -8 z m 8,0 h 8 v 8 h -8 z m 16,0 h 8 v 8 h -8 z M 8,40 h 8 v 8 H 8 Z m 16,0 h 8 v 8 h -8 z m 8,0 h 8 v 8 h -8 z m 8,0 h 8 v 8 h -8 z m 16,0 h 8 v 8 h -8 z m 24,0 h 8 v 8 h -8 z m 48,0 h 8 v 8 h -8 z m 8,0 h 8 v 8 h -8 z m 24,0 h 8 v 8 h -8 z m 8,0 h 8 v 8 h -8 z m 16,0 h 8 v 8 h -8 z m 16,0 h 8 v 8 h -8 z m 8,0 h 8 v 8 h -8 z m 8,0 h 8 v 8 h -8 z m 16,0 h 8 v 8 h -8 z M 8,48 h 8 v 8 H 8 Z m 48,0 h 8 v 8 h -8 z m 16,0 h 8 v 8 h -8 z m 8,0 h 8 v 8 h -8 z m 16,0 h 8 v 8 h -8 z m 8,0 h 8 v 8 h -8 z m 40,0 h 8 v 8 h -8 z m 8,0 h 8 v 8 h -8 z m 16,0 h 8 v 8 h -8 z m 16,0 h 8 v 8 h -8 z m 48,0 h 8 v 8 h -8 z M 8,56 h 8 v 8 H 8 Z m 8,0 h 8 v 8 h -8 z m 8,0 h 8 v 8 h -8 z m 8,0 h 8 v 8 h -8 z m 8,0 h 8 v 8 h -8 z m 8,0 h 8 v 8 h -8 z m 8,0 h 8 v 8 h -8 z m 16,0 h 8 v 8 h -8 z m 16,0 h 8 v 8 h -8 z m 16,0 h 8 v 8 h -8 z m 16,0 h 8 v 8 h -8 z m 16,0 h 8 v 8 h -8 z m 16,0 h 8 v 8 h -8 z m 16,0 h 8 v 8 h -8 z m 16,0 h 8 v 8 h -8 z m 8,0 h 8 v 8 h -8 z m 8,0 h 8 v 8 h -8 z m 8,0 h 8 v 8 h -8 z m 8,0 h 8 v 8 h -8 z m 8,0 h 8 v 8 h -8 z m 8,0 h 8 v 8 h -8 z M 80,64 h 8 v 8 h -8 z m 8,0 h 8 v 8 h -8 z m 8,0 h 8 v 8 h -8 z m 24,0 h 8 v 8 h -8 z m 16,0 h 8 v 8 h -8 z m 16,0 h 8 v 8 h -8 z m 16,0 h 8 v 8 h -8 z M 8,72 h 8 v 8 H 8 Z m 8,0 h 8 v 8 h -8 z m 8,0 h 8 v 8 h -8 z m 8,0 h 8 v 8 h -8 z m 8,0 h 8 v 8 h -8 z m 16,0 h 8 v 8 h -8 z m 8,0 h 8 v 8 h -8 z m 8,0 h 8 v 8 h -8 z m 8,0 h 8 v 8 h -8 z m 16,0 h 8 v 8 h -8 z m 48,0 h 8 v 8 h -8 z m 8,0 h 8 v 8 h -8 z m 24,0 h 8 v 8 h -8 z m 16,0 h 8 v 8 h -8 z m 16,0 h 8 v 8 h -8 z m 16,0 h 8 v 8 h -8 z M 8,80 h 8 v 8 H 8 Z m 8,0 h 8 v 8 h -8 z m 8,0 h 8 v 8 h -8 z m 8,0 h 8 v 8 h -8 z m 32,0 h 8 v 8 h -8 z m 8,0 h 8 v 8 h -8 z m 16,0 h 8 v 8 h -8 z m 16,0 h 8 v 8 h -8 z m 8,0 h 8 v 8 h -8 z m 8,0 h 8 v 8 h -8 z m 8,0 h 8 v 8 h -8 z m 32,0 h 8 v 8 h -8 z m 8,0 h 8 v 8 h -8 z m 16,0 h 8 v 8 h -8 z m 8,0 h 8 v 8 h -8 z m 8,0 h 8 v 8 h -8 z m 32,0 h 8 v 8 h -8 z M 56,88 h 8 v 8 h -8 z m 8,0 h 8 v 8 h -8 z m 8,0 h 8 v 8 h -8 z m 16,0 h 8 v 8 h -8 z m 24,0 h 8 v 8 h -8 z m 8,0 h 8 v 8 h -8 z m 8,0 h 8 v 8 h -8 z m 24,0 h 8 v 8 h -8 z m 48,0 h 8 v 8 h -8 z M 16,96 h 8 v 8 h -8 z m 32,0 h 8 v 8 h -8 z m 24,0 h 8 v 8 h -8 z m 32,0 h 8 v 8 h -8 z m 8,0 h 8 v 8 h -8 z m 48,0 h 8 v 8 h -8 z m 8,0 h 8 v 8 h -8 z m 40,0 h 8 v 8 h -8 z m 16,0 h 8 v 8 h -8 z m -200,8 h 8 v 8 h -8 z m 8,0 h 8 v 8 h -8 z m 8,0 h 8 v 8 h -8 z m 8,0 h 8 v 8 h -8 z m 8,0 h 8 v 8 h -8 z m 16,0 h 8 v 8 h -8 z m 8,0 h 8 v 8 h -8 z m 8,0 h 8 v 8 h -8 z m 16,0 h 8 v 8 h -8 z m 16,0 h 8 v 8 h -8 z m 8,0 h 8 v 8 h -8 z m 8,0 h 8 v 8 h -8 z m 8,0 h 8 v 8 h -8 z m 8,0 h 8 v 8 h -8 z m 56,0 h 8 v 8 h -8 z m 8,0 h 8 v 8 h -8 z M 8,112 h 8 v 8 H 8 Z m 8,0 h 8 v 8 h -8 z m 16,0 h 8 v 8 h -8 z m 8,0 h 8 v 8 h -8 z m 8,0 h 8 v 8 h -8 z m 16,0 h 8 v 8 h -8 z m 64,0 h 8 v 8 h -8 z m 8,0 h 8 v 8 h -8 z m 32,0 h 8 v 8 h -8 z m 8,0 h 8 v 8 h -8 z m 8,0 h 8 v 8 h -8 z m 8,0 h 8 v 8 h -8 z m 8,0 h 8 v 8 h -8 z m 32,0 h 8 v 8 h -8 z m -208,8 h 8 v 8 h -8 z m 16,0 h 8 v 8 h -8 z m 16,0 h 8 v 8 h -8 z m 8,0 h 8 v 8 h -8 z m 32,0 h 8 v 8 h -8 z m 8,0 h 8 v 8 h -8 z m 24,0 h 8 v 8 h -8 z m 8,0 h 8 v 8 h -8 z m 8,0 h 8 v 8 h -8 z m 24,0 h 8 v 8 h -8 z m 8,0 h 8 v 8 h -8 z m 24,0 h 8 v 8 h -8 z m 8,0 h 8 v 8 h -8 z m 8,0 h 8 v 8 h -8 z m -192,8 h 8 v 8 h -8 z m 8,0 h 8 v 8 h -8 z m 16,0 h 8 v 8 h -8 z m 24,0 h 8 v 8 h -8 z m 8,0 h 8 v 8 h -8 z m 16,0 h 8 v 8 h -8 z m 24,0 h 8 v 8 h -8 z m 8,0 h 8 v 8 h -8 z m 24,0 h 8 v 8 h -8 z m 8,0 h 8 v 8 h -8 z m 8,0 h 8 v 8 h -8 z m 8,0 h 8 v 8 h -8 z m 8,0 h 8 v 8 h -8 z m 8,0 h 8 v 8 h -8 z m 8,0 h 8 v 8 h -8 z m 24,0 h 8 v 8 h -8 z M 8,136 h 8 v 8 H 8 Z m 8,0 h 8 v 8 h -8 z m 32,0 h 8 v 8 h -8 z m 8,0 h 8 v 8 h -8 z m 32,0 h 8 v 8 h -8 z m 8,0 h 8 v 8 h -8 z m 32,0 h 8 v 8 h -8 z m 8,0 h 8 v 8 h -8 z m 8,0 h 8 v 8 h -8 z m 8,0 h 8 v 8 h -8 z m 8,0 h 8 v 8 h -8 z m 16,0 h 8 v 8 h -8 z m 16,0 h 8 v 8 h -8 z m 16,0 h 8 v 8 h -8 z m 8,0 h 8 v 8 h -8 z M 8,144 h 8 v 8 H 8 Z m 8,0 h 8 v 8 h -8 z m 16,0 h 8 v 8 h -8 z m 8,0 h 8 v 8 h -8 z m 24,0 h 8 v 8 h -8 z m 40,0 h 8 v 8 h -8 z m 8,0 h 8 v 8 h -8 z m 8,0 h 8 v 8 h -8 z m 8,0 h 8 v 8 h -8 z m 8,0 h 8 v 8 h -8 z m 8,0 h 8 v 8 h -8 z m 8,0 h 8 v 8 h -8 z m 8,0 h 8 v 8 h -8 z m 16,0 h 8 v 8 h -8 z m 8,0 h 8 v 8 h -8 z m 8,0 h 8 v 8 h -8 z m 8,0 h 8 v 8 h -8 z m 16,0 h 8 v 8 h -8 z m 16,0 h 8 v 8 h -8 z M 8,152 h 8 v 8 H 8 Z m 16,0 h 8 v 8 h -8 z m 24,0 h 8 v 8 h -8 z m 8,0 h 8 v 8 h -8 z m 24,0 h 8 v 8 h -8 z m 32,0 h 8 v 8 h -8 z m 8,0 h 8 v 8 h -8 z m 8,0 h 8 v 8 h -8 z m 8,0 h 8 v 8 h -8 z m 8,0 h 8 v 8 h -8 z m 24,0 h 8 v 8 h -8 z m 16,0 h 8 v 8 h -8 z m 8,0 h 8 v 8 h -8 z m 8,0 h 8 v 8 h -8 z m 16,0 h 8 v 8 h -8 z M 8,160 h 8 v 8 H 8 Z m 24,0 h 8 v 8 h -8 z m 8,0 h 8 v 8 h -8 z m 8,0 h 8 v 8 h -8 z m 56,0 h 8 v 8 h -8 z m 8,0 h 8 v 8 h -8 z m 16,0 h 8 v 8 h -8 z m 8,0 h 8 v 8 h -8 z m 32,0 h 8 v 8 h -8 z m 8,0 h 8 v 8 h -8 z m 8,0 h 8 v 8 h -8 z m 40,0 h 8 v 8 h -8 z M 8,168 h 8 v 8 H 8 Z m 16,0 h 8 v 8 h -8 z m 24,0 h 8 v 8 h -8 z m 8,0 h 8 v 8 h -8 z m 48,0 h 8 v 8 h -8 z m 16,0 h 8 v 8 h -8 z m 40,0 h 8 v 8 h -8 z m 8,0 h 8 v 8 h -8 z m 8,0 h 8 v 8 h -8 z m 8,0 h 8 v 8 h -8 z m 8,0 h 8 v 8 h -8 z m 8,0 h 8 v 8 h -8 z m 16,0 h 8 v 8 h -8 z m 8,0 h 8 v 8 h -8 z m 8,0 h 8 v 8 h -8 z m -160,8 h 8 v 8 h -8 z m 8,0 h 8 v 8 h -8 z m 72,0 h 8 v 8 h -8 z m 16,0 h 8 v 8 h -8 z m 32,0 h 8 v 8 h -8 z m 8,0 h 8 v 8 h -8 z m 8,0 h 8 v 8 h -8 z m 8,0 h 8 v 8 h -8 z m 8,0 h 8 v 8 h -8 z M 8,184 h 8 v 8 H 8 Z m 8,0 h 8 v 8 h -8 z m 8,0 h 8 v 8 h -8 z m 8,0 h 8 v 8 h -8 z m 8,0 h 8 v 8 h -8 z m 8,0 h 8 v 8 h -8 z m 8,0 h 8 v 8 h -8 z m 16,0 h 8 v 8 h -8 z m 8,0 h 8 v 8 h -8 z m 16,0 h 8 v 8 h -8 z m 8,0 h 8 v 8 h -8 z m 24,0 h 8 v 8 h -8 z m 8,0 h 8 v 8 h -8 z m 8,0 h 8 v 8 h -8 z m 16,0 h 8 v 8 h -8 z m 8,0 h 8 v 8 h -8 z m 16,0 h 8 v 8 h -8 z m 16,0 h 8 v 8 h -8 z m 8,0 h 8 v 8 h -8 z m 8,0 h 8 v 8 h -8 z M 8,192 h 8 v 8 H 8 Z m 48,0 h 8 v 8 h -8 z m 24,0 h 8 v 8 h -8 z m 16,0 h 8 v 8 h -8 z m 24,0 h 8 v 8 h -8 z m 8,0 h 8 v 8 h -8 z m 8,0 h 8 v 8 h -8 z m 16,0 h 8 v 8 h -8 z m 8,0 h 8 v 8 h -8 z m 8,0 h 8 v 8 h -8 z m 32,0 h 8 v 8 h -8 z m 24,0 h 8 v 8 h -8 z m 8,0 h 8 v 8 h -8 z M 8,200 h 8 v 8 H 8 Z m 16,0 h 8 v 8 h -8 z m 8,0 h 8 v 8 h -8 z m 8,0 h 8 v 8 h -8 z m 16,0 h 8 v 8 h -8 z m 16,0 h 8 v 8 h -8 z m 24,0 h 8 v 8 h -8 z m 32,0 h 8 v 8 h -8 z m 16,0 h 8 v 8 h -8 z m 24,0 h 8 v 8 h -8 z m 8,0 h 8 v 8 h -8 z m 8,0 h 8 v 8 h -8 z m 8,0 h 8 v 8 h -8 z m 8,0 h 8 v 8 h -8 z m 16,0 h 8 v 8 h -8 z m 8,0 h 8 v 8 h -8 z M 8,208 h 8 v 8 H 8 Z m 16,0 h 8 v 8 h -8 z m 8,0 h 8 v 8 h -8 z m 8,0 h 8 v 8 h -8 z m 16,0 h 8 v 8 h -8 z m 16,0 h 8 v 8 h -8 z m 8,0 h 8 v 8 h -8 z m 8,0 h 8 v 8 h -8 z m 16,0 h 8 v 8 h -8 z m 8,0 h 8 v 8 h -8 z m 8,0 h 8 v 8 h -8 z m 16,0 h 8 v 8 h -8 z m 24,0 h 8 v 8 h -8 z m 8,0 h 8 v 8 h -8 z m 40,0 h 8 v 8 h -8 z m 8,0 h 8 v 8 h -8 z m 8,0 h 8 v 8 h -8 z m 8,0 h 8 v 8 h -8 z M 8,216 h 8 v 8 H 8 Z m 16,0 h 8 v 8 h -8 z m 8,0 h 8 v 8 h -8 z m 8,0 h 8 v 8 h -8 z m 16,0 h 8 v 8 h -8 z m 16,0 h 8 v 8 h -8 z m 8,0 h 8 v 8 h -8 z m 32,0 h 8 v 8 h -8 z m 8,0 h 8 v 8 h -8 z m 8,0 h 8 v 8 h -8 z m 8,0 h 8 v 8 h -8 z m 8,0 h 8 v 8 h -8 z m 8,0 h 8 v 8 h -8 z m 8,0 h 8 v 8 h -8 z m 8,0 h 8 v 8 h -8 z m 8,0 h 8 v 8 h -8 z m 8,0 h 8 v 8 h -8 z m 8,0 h 8 v 8 h -8 z m 8,0 h 8 v 8 h -8 z m 8,0 h 8 v 8 h -8 z m 8,0 h 8 v 8 h -8 z m 8,0 h 8 v 8 h -8 z M 8,224 h 8 v 8 H 8 Z m 48,0 h 8 v 8 h -8 z m 16,0 h 8 v 8 h -8 z m 8,0 h 8 v 8 h -8 z m 8,0 h 8 v 8 h -8 z m 16,0 h 8 v 8 h -8 z m 8,0 h 8 v 8 h -8 z m 16,0 h 8 v 8 h -8 z m 8,0 h 8 v 8 h -8 z m 16,0 h 8 v 8 h -8 z m 16,0 h 8 v 8 h -8 z m 8,0 h 8 v 8 h -8 z m 16,0 h 8 v 8 h -8 z m 16,0 h 8 v 8 h -8 z m 16,0 h 8 v 8 h -8 z M 8,232 h 8 v 8 H 8 Z m 8,0 h 8 v 8 h -8 z m 8,0 h 8 v 8 h -8 z m 8,0 h 8 v 8 h -8 z m 8,0 h 8 v 8 h -8 z m 8,0 h 8 v 8 h -8 z m 8,0 h 8 v 8 h -8 z m 16,0 h 8 v 8 h -8 z m 8,0 h 8 v 8 h -8 z m 24,0 h 8 v 8 h -8 z m 16,0 h 8 v 8 h -8 z m 8,0 h 8 v 8 h -8 z m 16,0 h 8 v 8 h -8 z m 16,0 h 8 v 8 h -8 z m 24,0 h 8 v 8 h -8 z m 8,0 h 8 v 8 h -8 z m 8,0 h 8 v 8 h -8 z m 16,0 h 8 v 8 h -8 z"
           id="path1" /></g><text
            xml:space="preserve"
            style="font-size:42.3333px;line-height:27px;text-align:center;text-anchor:middle;fill:#000000;stroke-width:0.264583"
            x="33.483997"
            y="31.073385"
            id="text1"
            transform="matrix(3.7795084,0,0,3.7795276,-248,0)"><tspan
           sodipodi:role="line"
           id="tspan1"
           style="font-style:normal;font-variant:normal;font-weight:bold;font-stretch:normal;font-size:42.3333px;line-height:27px;font-family:'Courier New';-inkscape-font-specification:'Courier New Bold';text-align:center;text-anchor:middle;stroke-width:0.264583;fill:#000000"
           x="33.483997"
           y="31.073385">FR</tspan><tspan
            sodipodi:role="line"
            style="font-style:normal;font-variant:normal;font-weight:bold;font-stretch:normal;font-size:42.3333px;line-height:27px;font-family:'Courier New';-inkscape-font-specification:'Courier New Bold';text-align:center;text-anchor:middle;stroke-width:0.264583;fill:#000000"
            x="33.483997"
            y="59.57394"
            id="tspan2">EE</tspan></text></g></g></svg>
